<svg id="Layer_1" data-name="Layer 1" xmlns="http://www.w3.org/2000/svg" viewBox="0 0 200 200"><defs><style>.cls-1{fill:#00a6cc;opacity:0.8;}.cls-2{fill:#3c3c3b;}.cls-3{fill:#fff;}</style></defs><title>Powered by blue-social</title><ellipse class="cls-1" cx="100" cy="100" rx="60.08" ry="60"/><polygon class="cls-2" points="169.44 121.34 34.26 137.51 34.26 81.28 169.44 65.1 169.44 121.34"/><path class="cls-3" d="M54.15,124.37l-2.52.31c-.41,0-.62-.13-.62-.55V106.35a.63.63,0,0,1,.62-.7l7.22-.88a4.43,4.43,0,0,1,3.58.82A4.28,4.28,0,0,1,63.71,109v2.84a5.38,5.38,0,0,1-1.28,3.73,5.51,5.51,0,0,1-3.58,1.69l-3.72.45a.35.35,0,0,0-.36.37v5.6A.63.63,0,0,1,54.15,124.37Zm1-9.94,3.13-.38a2,2,0,0,0,1.33-.56,2,2,0,0,0,.39-1.37v-2.48a1.71,1.71,0,0,0-.39-1.3,1.62,1.62,0,0,0-1.33-.24l-3.13.38a.34.34,0,0,0-.33.37v5.3C54.77,114.36,54.88,114.46,55.1,114.43Z"/><path class="cls-3" d="M68.68,122.61l-2.84.34c-.36,0-.48-.15-.36-.58L70.16,104a1,1,0,0,1,.89-.73L75,102.8c.49-.06.79.11.89.51l4.67,17.23c.12.4,0,.62-.35.66l-2.84.35a.53.53,0,0,1-.45-.08,1,1,0,0,1-.17-.47l-.83-3.15-5.77.7-.83,3.36a1,1,0,0,1-.19.51A.69.69,0,0,1,68.68,122.61Zm4.29-16-2.13,8.81,4.38-.53-2.13-8.3Z"/><path class="cls-3" d="M82.7,116v-.59a.63.63,0,0,1,.63-.7l2.51-.3c.41-.06.62.13.62.54v.24a1.85,1.85,0,0,0,.45,1.48,2.14,2.14,0,0,0,1.62.22l1.39-.17a2.6,2.6,0,0,0,1.62-.64,2.54,2.54,0,0,0,.46-1.71v-.36a1.3,1.3,0,0,0-.7-1.23,3.39,3.39,0,0,0-1.73-.34,17.34,17.34,0,0,1-2.24-.07A12.64,12.64,0,0,1,85.1,112a2.91,2.91,0,0,1-1.73-1.36,5.37,5.37,0,0,1-.7-2.92v-1A5.37,5.37,0,0,1,84,103a5.61,5.61,0,0,1,3.61-1.71l3-.36a4.49,4.49,0,0,1,3.63.83,4.25,4.25,0,0,1,1.31,3.42v.57a.63.63,0,0,1-.62.69l-2.52.31c-.41,0-.62-.13-.62-.55V106a1.92,1.92,0,0,0-.45-1.52,2.24,2.24,0,0,0-1.62-.22l-1.16.15a2.46,2.46,0,0,0-1.64.65,3,3,0,0,0-.43,1.85v.56c0,.93.81,1.36,2.43,1.31a13.91,13.91,0,0,1,4.47.46,3.21,3.21,0,0,1,1.73,1.37,5.13,5.13,0,0,1,.69,2.83v1a5.37,5.37,0,0,1-1.3,3.75,5.63,5.63,0,0,1-3.61,1.71l-3.22.39a4.49,4.49,0,0,1-3.61-.83A4.28,4.28,0,0,1,82.7,116Z"/><path class="cls-3" d="M98.65,114.1v-.59a.63.63,0,0,1,.62-.7l2.52-.31c.41,0,.62.13.62.55v.24a1.89,1.89,0,0,0,.44,1.48,2.23,2.23,0,0,0,1.63.22l1.39-.17a2.6,2.6,0,0,0,1.62-.64,2.57,2.57,0,0,0,.45-1.72v-.35a1.31,1.31,0,0,0-.69-1.24,3.31,3.31,0,0,0-1.73-.33,19.34,19.34,0,0,1-2.24-.07,13.45,13.45,0,0,1-2.23-.38,3,3,0,0,1-1.73-1.36,5.3,5.3,0,0,1-.7-2.92v-1a5.37,5.37,0,0,1,1.3-3.74,5.62,5.62,0,0,1,3.61-1.72l3-.36a4.54,4.54,0,0,1,3.64.83,4.25,4.25,0,0,1,1.31,3.43v.56a.64.64,0,0,1-.63.7l-2.51.3c-.42,0-.62-.13-.62-.54v-.18a1.92,1.92,0,0,0-.45-1.52,2.2,2.2,0,0,0-1.62-.21l-1.16.14a2.51,2.51,0,0,0-1.64.66,2.9,2.9,0,0,0-.43,1.84v.57c0,.92.81,1.36,2.43,1.3a14.23,14.23,0,0,1,4.47.46,3.18,3.18,0,0,1,1.73,1.38,5.11,5.11,0,0,1,.69,2.83v1a5.32,5.32,0,0,1-1.3,3.74,5.59,5.59,0,0,1-3.61,1.72l-3.23.39a4.51,4.51,0,0,1-3.61-.83A4.31,4.31,0,0,1,98.65,114.1Z"/><path class="cls-3" d="M119,98.05v17.81a.63.63,0,0,1-.62.7l-2.52.31c-.41,0-.62-.14-.62-.55V98.5a.63.63,0,0,1,.62-.69l2.52-.31C118.77,97.45,119,97.63,119,98.05Z"/><path class="cls-3" d="M130.88,115l-3.32.4a4.49,4.49,0,0,1-3.61-.81,4.26,4.26,0,0,1-1.27-3.43v-9.4A5.33,5.33,0,0,1,124,98.06a5.62,5.62,0,0,1,3.61-1.69l3.32-.4a4.54,4.54,0,0,1,3.61.8,4.33,4.33,0,0,1,1.27,3.44v9.4a5.38,5.38,0,0,1-1.27,3.74A5.59,5.59,0,0,1,130.88,115Zm-2.73-2.93,2.1-.26a2.09,2.09,0,0,0,1.35-.56,2.05,2.05,0,0,0,.4-1.4v-9a1.68,1.68,0,0,0-.4-1.3,1.72,1.72,0,0,0-1.35-.23l-2.1.25a2,2,0,0,0-1.33.57,2.14,2.14,0,0,0-.38,1.39v9a1.77,1.77,0,0,0,.38,1.3A1.71,1.71,0,0,0,128.15,112.11Z"/><path class="cls-3" d="M142.39,113.64l-2.46.3c-.41,0-.62-.14-.62-.55V95.56a.64.64,0,0,1,.62-.7l2.22-.27a.75.75,0,0,1,.83.32l6,10.51h.11v-11a.63.63,0,0,1,.63-.7l2.45-.3c.42-.05.62.13.62.55v17.83a.63.63,0,0,1-.62.7l-2.16.26a.87.87,0,0,1-1-.48l-5.91-10.31H143v11A.64.64,0,0,1,142.39,113.64Z"/><path class="cls-3" d="M63.19,97l-1.28.16c-.21,0-.31-.07-.31-.28v-9a.31.31,0,0,1,.31-.35l3.67-.45a2.23,2.23,0,0,1,1.81.41A2.18,2.18,0,0,1,68,89.22v1.45a2.73,2.73,0,0,1-.65,1.89,2.8,2.8,0,0,1-1.81.86l-1.9.23a.18.18,0,0,0-.18.19v2.84A.31.31,0,0,1,63.19,97Zm.48-5,1.59-.19a1.05,1.05,0,0,0,.68-.29,1,1,0,0,0,.19-.69V89.55a.88.88,0,0,0-.19-.66.85.85,0,0,0-.68-.12L63.67,89a.18.18,0,0,0-.17.19v2.69C63.5,92,63.56,92,63.67,92Z"/><path class="cls-3" d="M73.57,95.76,71.89,96a2.31,2.31,0,0,1-1.84-.41,2.17,2.17,0,0,1-.64-1.74V89.06a2.72,2.72,0,0,1,.64-1.9,2.88,2.88,0,0,1,1.84-.86l1.68-.2a2.3,2.3,0,0,1,1.83.4,2.18,2.18,0,0,1,.65,1.74V93a2.74,2.74,0,0,1-.65,1.9A2.87,2.87,0,0,1,73.57,95.76Zm-1.38-1.48,1.06-.13a1.11,1.11,0,0,0,.69-.29,1.07,1.07,0,0,0,.2-.71V88.57a.66.66,0,0,0-.89-.78l-1.06.13a1,1,0,0,0-.68.29,1,1,0,0,0-.2.7V93.5a.88.88,0,0,0,.2.66A.84.84,0,0,0,72.19,94.28Z"/><path class="cls-3" d="M81.18,94.83l-2.1.26c-.22,0-.35-.07-.38-.27L77.1,86c0-.21.07-.32.31-.35l1.56-.2c.23,0,.36.07.37.28l.87,7.3h.1l1.44-7.64a.35.35,0,0,1,.32-.31l1.68-.2a.25.25,0,0,1,.33.21l1.47,7.29h.12l.86-7.5a.37.37,0,0,1,.36-.38l1.56-.19c.24,0,.35.07.32.29l-1.62,9.22a.37.37,0,0,1-.35.36l-2.12.26a.28.28,0,0,1-.36-.27L83,87.24h-.06l-1.37,7.22A.4.4,0,0,1,81.18,94.83Z"/><path class="cls-3" d="M95.2,93.11l-4.92.61c-.21,0-.31-.07-.31-.28v-9a.31.31,0,0,1,.31-.35l4.92-.61c.2,0,.3.07.3.28v1a.31.31,0,0,1-.3.35l-3.14.38c-.12,0-.18.08-.18.19v2c0,.11.06.15.18.14l2.57-.32c.21,0,.31.07.31.28v1a.32.32,0,0,1-.31.36l-2.57.31c-.12,0-.18.08-.18.19V91.7c0,.11.06.16.18.14l3.14-.38c.2,0,.3.07.3.28v1A.31.31,0,0,1,95.2,93.11Z"/><path class="cls-3" d="M98.76,92.68l-1.28.15c-.21,0-.32-.06-.32-.27v-9a.33.33,0,0,1,.32-.36l3.57-.43a2.26,2.26,0,0,1,1.84.42,2.16,2.16,0,0,1,.66,1.74v1.17a2.53,2.53,0,0,1-1.34,2.42v.06l1.61,3.16c.09.23,0,.36-.26.39l-1.21.15a.94.94,0,0,1-.39,0,.36.36,0,0,1-.2-.24l-1.5-3.06-1,.12c-.12,0-.18.08-.18.19v3.08A.32.32,0,0,1,98.76,92.68Zm.48-5.16,1.47-.18a1.17,1.17,0,0,0,.7-.29.93.93,0,0,0,.23-.68V85.2a.8.8,0,0,0-.23-.65.87.87,0,0,0-.7-.13l-1.47.18a.18.18,0,0,0-.17.19v2.59C99.07,87.49,99.13,87.53,99.24,87.52Z"/><path class="cls-3" d="M110.61,91.23l-4.92.6c-.21,0-.31-.07-.31-.28v-9a.31.31,0,0,1,.31-.35l4.92-.61c.2,0,.3.07.3.28v1a.31.31,0,0,1-.3.35l-3.14.38c-.12,0-.18.08-.18.19v2c0,.11.06.16.18.14l2.57-.31c.21,0,.31.06.31.27v1a.31.31,0,0,1-.31.35l-2.57.32q-.18,0-.18.18v2.09q0,.16.18.15l3.14-.39c.2,0,.3.07.3.28v1A.31.31,0,0,1,110.61,91.23Z"/><path class="cls-3" d="M112.57,90.67v-9a.33.33,0,0,1,.32-.36l3.71-.45a2.25,2.25,0,0,1,1.82.41,2.18,2.18,0,0,1,.66,1.74v4.77a2.69,2.69,0,0,1-.66,1.89,2.78,2.78,0,0,1-1.82.86l-3.71.46C112.68,91,112.57,90.88,112.57,90.67Zm2.08-1.59,1.63-.2a1.11,1.11,0,0,0,.69-.29,1.07,1.07,0,0,0,.2-.71V83.29a.66.66,0,0,0-.89-.78l-1.63.2a.18.18,0,0,0-.17.19v6C114.48,89,114.54,89.09,114.65,89.08Z"/><path class="cls-3" d="M124.18,89.25v-9a.33.33,0,0,1,.32-.36l3.6-.44a2.28,2.28,0,0,1,1.84.41,2.13,2.13,0,0,1,.64,1.72v.62A1.83,1.83,0,0,1,129.4,84a1.39,1.39,0,0,1,1,.37,1.48,1.48,0,0,1,.36,1.09v.91a2.69,2.69,0,0,1-.65,1.88,2.8,2.8,0,0,1-1.82.86l-3.75.46C124.29,89.55,124.18,89.46,124.18,89.25Zm2.08-5.69,1.53-.18a1.17,1.17,0,0,0,.7-.29.94.94,0,0,0,.23-.7V81.8a.77.77,0,0,0-.22-.64.91.91,0,0,0-.7-.12l-1.54.19a.17.17,0,0,0-.17.19v2C126.09,83.53,126.15,83.58,126.26,83.56Zm0,4.16,1.68-.21a1.14,1.14,0,0,0,.71-.29,1,1,0,0,0,.22-.7v-.87a.74.74,0,0,0-.22-.63,1,1,0,0,0-.74-.11l-1.65.2a.18.18,0,0,0-.17.19v2.27C126.09,87.68,126.15,87.73,126.26,87.72Z"/><path class="cls-3" d="M136.07,88.11l-1.28.16c-.21,0-.32-.07-.32-.28V84.77l-2.75-5.47a.25.25,0,0,1,0-.24.27.27,0,0,1,.2-.12l1.6-.2c.16,0,.28.07.36.28l1.5,3.47h.1L137,78.64q.1-.33.36-.36l1.59-.2a.23.23,0,0,1,.22.07s0,.13,0,.24l-2.75,6.15v3.22A.31.31,0,0,1,136.07,88.11Z"/></svg>